<svg width="16" height="17" viewBox="0 0 16 17" fill="none" xmlns="http://www.w3.org/2000/svg">
<path fill-rule="evenodd" clip-rule="evenodd" d="M4.86364 0.399414C5.2653 0.399414 5.59091 0.725025 5.59091 1.12669V1.85396H9.95455V1.12669C9.95455 0.725025 10.2802 0.399414 10.6818 0.399414C11.0835 0.399414 11.4091 0.725025 11.4091 1.12669V1.85514C11.7549 1.85752 12.0571 1.86466 12.3195 1.8861C12.7283 1.9195 13.1041 1.99118 13.4571 2.17103C14.0044 2.44994 14.4495 2.89497 14.7284 3.44235C14.9082 3.79532 14.9799 4.17111 15.0133 4.5799C15.0455 4.9735 15.0455 5.45666 15.0455 6.04209V12.2113C15.0455 12.7967 15.0455 13.2799 15.0133 13.6735C14.9799 14.0823 14.9082 14.4581 14.7284 14.811C14.4495 15.3584 14.0044 15.8034 13.4571 16.0823C13.1041 16.2622 12.7283 16.3339 12.3195 16.3673C11.9259 16.3994 11.4428 16.3994 10.8573 16.3994H4.68813C4.1027 16.3994 3.61954 16.3994 3.22595 16.3673C2.81715 16.3339 2.44136 16.2622 2.08839 16.0823C1.54101 15.8034 1.09598 15.3584 0.817073 14.811C0.637225 14.4581 0.565542 14.0823 0.532141 13.6735C0.499983 13.2799 0.499991 12.7967 0.5 12.2113V6.04211C0.499991 5.45667 0.499983 4.9735 0.532141 4.5799C0.565542 4.17111 0.637225 3.79532 0.817073 3.44235C1.09598 2.89497 1.54101 2.44994 2.08839 2.17103C2.44136 1.99118 2.81715 1.9195 3.22595 1.8861C3.48835 1.86466 3.79057 1.85752 4.13636 1.85514V1.12669C4.13636 0.725025 4.46198 0.399414 4.86364 0.399414ZM4.13636 3.30979C3.81234 3.31206 3.55791 3.31837 3.34439 3.33582C3.02554 3.36187 2.86249 3.40909 2.74874 3.46704C2.47505 3.60649 2.25253 3.82901 2.11308 4.1027C2.05513 4.21645 2.00791 4.3795 1.98186 4.69835C1.95511 5.02569 1.95455 5.44917 1.95455 6.07214V6.2176H13.5909V6.07214C13.5909 5.44917 13.5903 5.02569 13.5636 4.69835C13.5375 4.3795 13.4903 4.21645 13.4324 4.1027C13.2929 3.82901 13.0704 3.60649 12.7967 3.46704C12.683 3.40909 12.5199 3.36187 12.2011 3.33582C11.9875 3.31837 11.7331 3.31206 11.4091 3.30979V4.03578C11.4091 4.43744 11.0835 4.76305 10.6818 4.76305C10.2802 4.76305 9.95455 4.43744 9.95455 4.03578V3.30851H5.59091V4.03578C5.59091 4.43744 5.2653 4.76305 4.86364 4.76305C4.46198 4.76305 4.13636 4.43744 4.13636 4.03578V3.30979ZM13.5909 7.67214H1.95455V12.1812C1.95455 12.8042 1.95511 13.2277 1.98186 13.555C2.00791 13.8739 2.05513 14.0369 2.11308 14.1507C2.25253 14.4244 2.47505 14.6469 2.74874 14.7863C2.86249 14.8443 3.02554 14.8915 3.34439 14.9176C3.67173 14.9443 4.09522 14.9449 4.71818 14.9449H10.8273C11.4502 14.9449 11.8737 14.9443 12.2011 14.9176C12.5199 14.8915 12.683 14.8443 12.7967 14.7863C13.0704 14.6469 13.2929 14.4244 13.4324 14.1507C13.4903 14.0369 13.5375 13.8739 13.5636 13.555C13.5903 13.2277 13.5909 12.8042 13.5909 12.1812V7.67214Z" fill="white"/>
</svg>
