<svg width="18" height="17" viewBox="0 0 18 17" fill="none" xmlns="http://www.w3.org/2000/svg">
<path fill-rule="evenodd" clip-rule="evenodd" d="M2.73284 0.0803235C2.74513 0.0803241 2.75745 0.0803246 2.76982 0.0803246L14.972 0.0803235C15.4051 0.0803021 15.7848 0.0802833 16.0827 0.107067C16.3685 0.132765 16.7607 0.193096 17.0786 0.455515C17.4733 0.781441 17.6931 1.27306 17.6728 1.78456C17.6564 2.19639 17.4399 2.52892 17.2684 2.75907C17.0898 2.99893 16.8366 3.28184 16.5478 3.60461L11.8463 8.85921C11.7801 8.93321 11.7473 8.97011 11.7245 8.99786C11.7239 8.99858 11.7234 8.99926 11.7228 8.99992C11.7228 9.00078 11.7228 9.00166 11.7227 9.00259C11.7212 9.03846 11.721 9.08781 11.721 9.18711V13.5696C11.721 13.5785 11.7211 13.589 11.7213 13.6008C11.7225 13.7134 11.7249 13.9474 11.6435 14.1658C11.5749 14.3494 11.4635 14.514 11.3184 14.6459C11.1459 14.8027 10.9278 14.8872 10.8227 14.9279C10.8117 14.9322 10.802 14.936 10.7936 14.9393L7.98421 16.0631C7.85398 16.1152 7.70999 16.1729 7.58298 16.2108C7.44637 16.2515 7.22195 16.3048 6.96311 16.2511C6.6459 16.1851 6.36754 15.9967 6.18854 15.7267C6.04246 15.5063 6.00861 15.2781 5.99572 15.1362C5.98374 15.0042 5.98379 14.8491 5.98383 14.7088L5.98384 9.18711C5.98384 9.08781 5.98367 9.03845 5.98214 9.00258C5.9821 9.00166 5.98206 9.00078 5.98202 8.99992C5.98148 8.99926 5.98092 8.99858 5.98033 8.99787C5.95756 8.97011 5.92477 8.93321 5.85856 8.85921L1.18174 3.63218C1.1735 3.62297 1.16528 3.61378 1.15709 3.60463C0.868256 3.28185 0.615093 2.99893 0.436416 2.75907C0.264978 2.52892 0.04841 2.19639 0.0320554 1.78456C0.0117429 1.27306 0.231552 0.781442 0.626286 0.455515C0.944105 0.193096 1.33632 0.132765 1.62215 0.107067C1.92005 0.0802833 2.2997 0.0803021 2.73284 0.0803235ZM1.72494 1.7441C1.73277 1.75511 1.74142 1.76702 1.75098 1.77984C1.8801 1.95319 2.08251 2.18061 2.40334 2.53918L7.08015 7.76621C7.08851 7.77555 7.09713 7.78513 7.10595 7.79494C7.20229 7.90208 7.32362 8.03701 7.41369 8.19768C7.49184 8.33708 7.54917 8.48717 7.58389 8.64316C7.6239 8.82296 7.62345 9.00442 7.6231 9.1485C7.62306 9.1617 7.62303 9.17458 7.62303 9.18711V14.4421L10.0818 13.4586V9.18711C10.0818 9.17458 10.0818 9.1617 10.0818 9.1485C10.0814 9.00441 10.0809 8.82296 10.121 8.64316C10.1557 8.48717 10.213 8.33708 10.2912 8.19768C10.3812 8.03701 10.5026 7.90208 10.5989 7.79494C10.6077 7.78513 10.6163 7.77555 10.6247 7.76621L15.3015 2.53918C15.6223 2.18061 15.8247 1.95319 15.9539 1.77984C15.9634 1.76702 15.9721 1.75511 15.9799 1.7441C15.9665 1.74259 15.9518 1.74111 15.9359 1.73967C15.7206 1.72032 15.4162 1.71952 14.935 1.71952H2.76982C2.28867 1.71952 1.98422 1.72032 1.76894 1.73967C1.75301 1.74111 1.73837 1.74259 1.72494 1.7441Z" fill="white"/>
</svg>
