<svg width="14" height="23" viewBox="0 0 14 23" fill="none" xmlns="http://www.w3.org/2000/svg">
<path fill-rule="evenodd" clip-rule="evenodd" d="M4.71159 2.61768C3.23883 2.61768 2.04492 3.81158 2.04492 5.28434V16.1177C2.04492 18.603 4.05964 20.6177 6.54492 20.6177C9.0302 20.6177 11.0449 18.603 11.0449 16.1177V4.87349C11.0449 4.32121 11.4926 3.87349 12.0449 3.87349C12.5972 3.87349 13.0449 4.32121 13.0449 4.87349V16.1177C13.0449 19.7075 10.1348 22.6177 6.54492 22.6177C2.95507 22.6177 0.0449219 19.7075 0.0449219 16.1177V5.28434C0.0449219 2.70701 2.13426 0.617676 4.71159 0.617676C7.28892 0.617676 9.37826 2.70701 9.37826 5.28434V16.0634C9.37826 17.6282 8.10973 18.8967 6.54492 18.8967C4.98012 18.8967 3.71159 17.6282 3.71159 16.0634V6.26884C3.71159 5.71655 4.1593 5.26884 4.71159 5.26884C5.26387 5.26884 5.71159 5.71655 5.71159 6.26884V16.0634C5.71159 16.5236 6.08468 16.8967 6.54492 16.8967C7.00516 16.8967 7.37826 16.5236 7.37826 16.0634V5.28434C7.37826 3.81158 6.18435 2.61768 4.71159 2.61768Z" fill="white"/>
</svg>
