<svg width="24" height="28" viewBox="0 0 24 28" fill="none" xmlns="http://www.w3.org/2000/svg">
<path d="M21.1953 7.43018V7.18018C21.1953 5.07998 21.1953 4.02988 20.7866 3.22771C20.4271 2.5221 19.8534 1.94843 19.1478 1.5889C18.3456 1.18018 17.2955 1.18018 15.1953 1.18018H7.19531C5.09512 1.18018 4.04502 1.18018 3.24285 1.5889C2.53724 1.94843 1.96356 2.5221 1.60404 3.22771C1.19531 4.02988 1.19531 5.07998 1.19531 7.18018V20.1802C1.19531 22.2804 1.19531 23.3305 1.60404 24.1326C1.96356 24.8382 2.53724 25.4119 3.24285 25.7715C4.04502 26.1802 5.09512 26.1802 7.19531 26.1802H11.8203M18.6953 21.1802V14.3052C18.6953 13.2696 19.5348 12.4302 20.5703 12.4302C21.6058 12.4302 22.4453 13.2696 22.4453 14.3052V21.1802C22.4453 23.2512 20.7664 24.9302 18.6953 24.9302C16.6242 24.9302 14.9453 23.2512 14.9453 21.1802V16.1802" stroke="white" stroke-width="2" stroke-linecap="round" stroke-linejoin="round"/>
</svg>
