<svg width="16" height="16" viewBox="0 0 16 16" fill="none" xmlns="http://www.w3.org/2000/svg">
<path fill-rule="evenodd" clip-rule="evenodd" d="M7.44805 2.277C4.35525 2.277 1.84805 4.78421 1.84805 7.877C1.84805 10.9698 4.35525 13.477 7.44805 13.477C8.9568 13.477 10.3262 12.8803 11.3332 11.9101C11.3542 11.8827 11.3773 11.8564 11.4024 11.8313C11.4274 11.8062 11.4538 11.7832 11.4812 11.7621C12.4514 10.7552 13.048 9.38576 13.048 7.877C13.048 4.78421 10.5408 2.277 7.44805 2.277ZM13.0736 12.3712C14.0589 11.1394 14.648 9.57701 14.648 7.877C14.648 3.90055 11.4245 0.677002 7.44805 0.677002C3.4716 0.677002 0.248047 3.90055 0.248047 7.877C0.248047 11.8535 3.4716 15.077 7.44805 15.077C9.14806 15.077 10.7105 14.4878 11.9422 13.5025L13.8824 15.4427C14.1948 15.7551 14.7013 15.7551 15.0137 15.4427C15.3262 15.1303 15.3262 14.6237 15.0137 14.3113L13.0736 12.3712Z" fill="white"/>
</svg>
