<svg width="21" height="21" viewBox="0 0 21 21" fill="none" xmlns="http://www.w3.org/2000/svg">
<path fill-rule="evenodd" clip-rule="evenodd" d="M2.8041 1.39997C2.81477 1.40521 2.82544 1.41044 2.8361 1.41567L18.9007 9.29354C19.1195 9.4008 19.339 9.50838 19.5103 9.6134C19.6693 9.71093 19.9763 9.91311 20.1513 10.2987C20.35 10.7366 20.35 11.2505 20.1513 11.6884C19.9763 12.074 19.6693 12.2761 19.5103 12.3737C19.339 12.4787 19.1196 12.5863 18.9007 12.6935L2.80959 20.5845C2.585 20.6946 2.36129 20.8044 2.17265 20.8756C1.99975 20.9409 1.65094 21.0605 1.26499 20.9432C0.829148 20.8106 0.475939 20.4623 0.311484 20.0029C0.165852 19.5961 0.240329 19.206 0.282707 19.012C0.328944 18.8003 0.406876 18.5468 0.48511 18.2922L2.7153 11.0325L0.489275 3.72384C0.48559 3.71175 0.481903 3.69965 0.478216 3.68755C0.400837 3.43363 0.323691 3.18048 0.278057 2.96911C0.236161 2.77506 0.162904 2.38562 0.308936 1.97986C0.473962 1.52132 0.827138 1.17396 1.26257 1.04193C1.64788 0.925097 1.9959 1.04431 2.16875 1.10956C2.35703 1.18064 2.58023 1.29014 2.8041 1.39997ZM2.44735 3.5172L4.40613 9.9484H9.00106C9.53074 9.9484 9.96012 10.4163 9.96012 10.9935C9.96012 11.5708 9.53074 12.0387 9.00106 12.0387H4.42895L2.45433 18.4665L17.6932 10.9935L2.44735 3.5172Z" fill="white"/>
</svg>
